<?xml version="1.0" encoding="utf-8"?>
<!-- Generator: Adobe Illustrator 16.0.0, SVG Export Plug-In . SVG Version: 6.00 Build 0)  -->
<!DOCTYPE svg PUBLIC "-//W3C//DTD SVG 1.1//EN" "http://www.w3.org/Graphics/SVG/1.1/DTD/svg11.dtd">
<svg version="1.1" id="Layer_1" xmlns="http://www.w3.org/2000/svg" xmlns:xlink="http://www.w3.org/1999/xlink" x="0px" y="0px"
	 width="46.602px" height="46.601px" viewBox="0 0 46.602 46.601" enable-background="new 0 0 46.602 46.601" xml:space="preserve">
<g>
	<path fill="#FFFFFF" d="M23.301,4.198c6.221,0,6.959,0.024,9.416,0.136c2.272,0.104,3.506,0.483,4.327,0.802
		c1.087,0.422,1.863,0.928,2.679,1.743c0.815,0.815,1.321,1.591,1.743,2.679c0.319,0.821,0.698,2.055,0.802,4.327
		c0.112,2.457,0.136,3.194,0.136,9.416s-0.023,6.958-0.136,9.415c-0.104,2.272-0.483,3.505-0.802,4.327
		c-0.422,1.087-0.928,1.863-1.743,2.679c-0.815,0.815-1.592,1.321-2.679,1.743c-0.821,0.319-2.055,0.698-4.327,0.802
		c-2.457,0.112-3.193,0.136-9.416,0.136c-6.222,0-6.959-0.024-9.415-0.136c-2.272-0.104-3.506-0.484-4.327-0.803
		c-1.087-0.422-1.863-0.927-2.679-1.743s-1.32-1.592-1.743-2.679c-0.319-0.822-0.699-2.055-0.802-4.327
		c-0.112-2.457-0.136-3.193-0.136-9.415s0.023-6.959,0.136-9.416c0.104-2.272,0.483-3.506,0.802-4.327
		C5.56,8.471,6.064,7.695,6.88,6.879s1.591-1.321,2.679-1.743c0.821-0.319,2.055-0.699,4.327-0.802
		C16.342,4.222,17.08,4.198,23.301,4.198 M23.301,0c-6.328,0-7.121,0.026-9.606,0.14c-2.481,0.113-4.174,0.507-5.656,1.083
		C6.506,1.818,5.206,2.615,3.911,3.911C2.616,5.206,1.819,6.505,1.223,8.037C0.647,9.52,0.254,11.213,0.14,13.693
		C0.027,16.179,0,16.973,0,23.301c0,6.328,0.027,7.121,0.14,9.606c0.114,2.48,0.507,4.174,1.083,5.656
		c0.596,1.533,1.393,2.832,2.688,4.127c1.295,1.296,2.595,2.092,4.127,2.688c1.482,0.576,3.175,0.97,5.656,1.083
		c2.485,0.114,3.278,0.141,9.606,0.141c6.329,0,7.122-0.026,9.607-0.141c2.48-0.113,4.174-0.507,5.656-1.083
		c1.532-0.596,2.832-1.392,4.126-2.687c1.295-1.296,2.092-2.595,2.688-4.128c0.576-1.482,0.97-3.175,1.083-5.656
		c0.114-2.485,0.14-3.279,0.14-9.606c0-6.328-0.026-7.122-0.14-9.607c-0.113-2.48-0.507-4.174-1.083-5.656
		c-0.596-1.532-1.393-2.831-2.688-4.126c-1.295-1.295-2.594-2.092-4.126-2.688c-1.482-0.576-3.176-0.969-5.656-1.083
		C30.422,0.026,29.629,0,23.301,0"/>
	<path fill="#FFFFFF" d="M23.301,11.335c-6.608,0-11.965,5.357-11.965,11.965c0,6.608,5.357,11.965,11.965,11.965
		s11.965-5.357,11.965-11.965C35.266,16.692,29.909,11.335,23.301,11.335 M23.301,31.068c-4.29,0-7.767-3.478-7.767-7.767
		c0-4.29,3.478-7.768,7.767-7.768c4.29,0,7.767,3.478,7.767,7.768C31.068,27.59,27.591,31.068,23.301,31.068"/>
	<path fill="#FFFFFF" d="M38.535,10.862c0,1.544-1.252,2.796-2.796,2.796s-2.796-1.252-2.796-2.796c0-1.544,1.252-2.796,2.796-2.796
		S38.535,9.318,38.535,10.862"/>
</g>
</svg>
