<?xml version="1.0" encoding="utf-8"?>
<!-- Generator: Adobe Illustrator 16.0.0, SVG Export Plug-In . SVG Version: 6.00 Build 0)  -->
<!DOCTYPE svg PUBLIC "-//W3C//DTD SVG 1.1//EN" "http://www.w3.org/Graphics/SVG/1.1/DTD/svg11.dtd">
<svg version="1.1" id="Layer_1" xmlns="http://www.w3.org/2000/svg" xmlns:xlink="http://www.w3.org/1999/xlink" x="0px" y="0px"
	 width="46.752px" height="46.68px" viewBox="0 0 46.752 46.68" enable-background="new 0 0 46.752 46.68" xml:space="preserve">
<g>
	<path fill="#FFFFFF" d="M10.427,46.68h-9.7V15.479h9.7V46.68z M5.577,11.155C2.497,11.155,0,8.658,0,5.577C0,2.497,2.497,0,5.577,0
		c3.081,0,5.578,2.497,5.578,5.577C11.155,8.658,8.658,11.155,5.577,11.155z M46.752,46.66h-9.7c0,0-0.076-15.529-0.076-17.939
		c0-2.41-1.425-5.472-4.88-5.472c-3.456,0-4.639,1.758-5.289,3.289c-0.652,1.531-0.721,4.88-0.721,4.88V46.68h-9.557V15.479h9.216
		v4.314c0.057,0,0.117,0,0.166,0c1.047-1.773,2.183-2.804,4.289-4.001s6.245-1.425,9.443-0.455c3.197,0.97,5.197,3.38,5.941,5.699
		c0.742,2.319,1.167,4.713,1.167,9.063S46.752,46.66,46.752,46.66z"/>
</g>
</svg>
