<?xml version="1.0" encoding="utf-8"?>
<!-- Generator: Adobe Illustrator 16.0.0, SVG Export Plug-In . SVG Version: 6.00 Build 0)  -->
<!DOCTYPE svg PUBLIC "-//W3C//DTD SVG 1.1//EN" "http://www.w3.org/Graphics/SVG/1.1/DTD/svg11.dtd">
<svg version="1.1" id="Layer_1" xmlns="http://www.w3.org/2000/svg" xmlns:xlink="http://www.w3.org/1999/xlink" x="0px" y="0px"
	 width="312.814px" height="161.17px" viewBox="0 0 312.814 161.17" enable-background="new 0 0 312.814 161.17"
	 xml:space="preserve">
<g>
	<rect y="126.103" fill="#FFFFFF" width="312.814" height="2.118"/>
</g>
<g>
	<g>
		<path fill="#FFFFFF" d="M23.92,147.238c-1.658,0-2.965,0.552-3.924,1.654c-0.96,1.105-1.438,2.615-1.438,4.533
			c0,1.974,0.461,3.499,1.387,4.573c0.925,1.077,2.243,1.614,3.955,1.614c1.052,0,2.251-0.188,3.599-0.565v1.536
			c-1.044,0.392-2.333,0.587-3.868,0.587c-2.221,0-3.933-0.674-5.14-2.021c-1.207-1.348-1.81-3.261-1.81-5.743
			c0-1.554,0.291-2.916,0.871-4.084c0.582-1.168,1.42-2.069,2.516-2.702c1.098-0.633,2.388-0.948,3.873-0.948
			c1.582,0,2.963,0.288,4.146,0.866l-0.742,1.506C26.202,147.506,25.061,147.238,23.92,147.238z"/>
	</g>
	<g>
		<path fill="#FFFFFF" d="M50.211,153.406c0,2.413-0.61,4.312-1.83,5.691c-1.221,1.382-2.917,2.073-5.09,2.073
			c-2.221,0-3.934-0.678-5.14-2.036c-1.207-1.359-1.81-3.274-1.81-5.75c0-2.453,0.604-4.357,1.815-5.707
			c1.209-1.352,2.928-2.028,5.156-2.028c2.166,0,3.856,0.689,5.073,2.062C49.603,149.087,50.211,150.986,50.211,153.406z
			 M38.197,153.406c0,2.041,0.435,3.59,1.304,4.645c0.87,1.056,2.133,1.584,3.79,1.584c1.671,0,2.932-0.526,3.785-1.577
			c0.853-1.053,1.279-2.603,1.279-4.651c0-2.028-0.424-3.566-1.274-4.615c-0.849-1.049-2.105-1.572-3.769-1.572
			c-1.671,0-2.941,0.526-3.811,1.583C38.632,149.857,38.197,151.39,38.197,153.406z"/>
	</g>
	<g>
		<path fill="#FFFFFF" d="M66.581,160.964l-5.115-13.365h-0.082c0.096,1.06,0.144,2.316,0.144,3.774v9.591h-1.619v-15.077h2.64
			l4.774,12.437h0.083l4.815-12.437h2.62v15.077h-1.753v-9.715c0-1.113,0.048-2.322,0.144-3.629H73.15l-5.157,13.344H66.581z"/>
	</g>
	<g>
		<path fill="#FFFFFF" d="M91.986,160.964l-5.115-13.365h-0.083c0.096,1.06,0.144,2.316,0.144,3.774v9.591h-1.618v-15.077h2.64
			l4.774,12.437h0.083l4.815-12.437h2.619v15.077h-1.753v-9.715c0-1.113,0.048-2.322,0.144-3.629h-0.082l-5.157,13.344H91.986z"/>
	</g>
	<g>
		<path fill="#FFFFFF" d="M122.104,145.887v9.756c0,1.719-0.52,3.07-1.558,4.054c-1.038,0.981-2.465,1.474-4.28,1.474
			c-1.814,0-3.22-0.494-4.213-1.484s-1.489-2.353-1.489-4.084v-9.715h1.752v9.839c0,1.259,0.343,2.225,1.031,2.896
			c0.688,0.676,1.699,1.012,3.032,1.012c1.272,0,2.251-0.338,2.939-1.016c0.688-0.677,1.031-1.649,1.031-2.914v-9.817H122.104z"/>
	</g>
	<g>
		<path fill="#FFFFFF" d="M144.208,160.964h-2.001l-8.239-12.654h-0.083c0.109,1.486,0.165,2.847,0.165,4.084v8.57h-1.619v-15.077
			h1.979l8.22,12.604h0.082c-0.014-0.187-0.044-0.782-0.093-1.79c-0.047-1.008-0.065-1.729-0.051-2.16v-8.653h1.639V160.964z"/>
	</g>
	<g>
		<path fill="#FFFFFF" d="M154.691,160.964v-15.077h1.751v15.077H154.691z"/>
	</g>
	<g>
		<path fill="#FFFFFF" d="M173.371,147.238c-1.659,0-2.966,0.552-3.926,1.654c-0.957,1.105-1.438,2.615-1.438,4.533
			c0,1.974,0.464,3.499,1.387,4.573c0.928,1.077,2.244,1.614,3.956,1.614c1.053,0,2.251-0.188,3.599-0.565v1.536
			c-1.044,0.392-2.333,0.587-3.867,0.587c-2.221,0-3.935-0.674-5.139-2.021c-1.209-1.348-1.812-3.261-1.812-5.743
			c0-1.554,0.29-2.916,0.871-4.084c0.58-1.168,1.421-2.069,2.518-2.702c1.096-0.633,2.388-0.948,3.871-0.948
			c1.582,0,2.962,0.288,4.145,0.866l-0.741,1.506C175.652,147.506,174.511,147.238,173.371,147.238z"/>
	</g>
	<g>
		<path fill="#FFFFFF" d="M196.051,160.964l-1.876-4.794h-6.043l-1.856,4.794h-1.772l5.96-15.14h1.476l5.928,15.14H196.051z
			 M193.629,154.59l-1.753-4.671c-0.228-0.592-0.462-1.317-0.702-2.175c-0.149,0.658-0.366,1.384-0.647,2.175l-1.777,4.671H193.629z
			"/>
	</g>
	<g>
		<path fill="#FFFFFF" d="M210.918,160.964h-1.755v-13.52h-4.775v-1.558h11.305v1.558h-4.774V160.964z"/>
	</g>
	<g>
		<path fill="#FFFFFF" d="M224.298,160.964v-15.077h1.751v15.077H224.298z"/>
	</g>
	<g>
		<path fill="#FFFFFF" d="M249.607,153.406c0,2.413-0.61,4.312-1.828,5.691c-1.222,1.382-2.919,2.073-5.092,2.073
			c-2.221,0-3.935-0.678-5.139-2.036c-1.209-1.359-1.812-3.274-1.812-5.75c0-2.453,0.604-4.357,1.815-5.707
			c1.209-1.352,2.93-2.028,5.157-2.028c2.166,0,3.855,0.689,5.073,2.062C249.001,149.087,249.607,150.986,249.607,153.406z
			 M237.595,153.406c0,2.041,0.435,3.59,1.304,4.645c0.869,1.056,2.134,1.584,3.789,1.584c1.673,0,2.934-0.526,3.785-1.577
			c0.852-1.053,1.28-2.603,1.28-4.651c0-2.028-0.425-3.566-1.273-4.615c-0.85-1.049-2.106-1.572-3.77-1.572
			c-1.673,0-2.942,0.526-3.812,1.583C238.029,149.857,237.595,151.39,237.595,153.406z"/>
	</g>
	<g>
		<path fill="#FFFFFF" d="M271.083,160.964h-2l-8.239-12.654h-0.083c0.108,1.486,0.165,2.847,0.165,4.084v8.57h-1.618v-15.077h1.978
			l8.22,12.604h0.083c-0.014-0.187-0.044-0.782-0.091-1.79c-0.048-1.008-0.065-1.729-0.053-2.16v-8.653h1.639V160.964z"/>
	</g>
	<g>
		<path fill="#FFFFFF" d="M290.074,156.952c0,1.328-0.48,2.362-1.442,3.105c-0.965,0.743-2.271,1.113-3.922,1.113
			c-1.785,0-3.161-0.229-4.125-0.691v-1.689c0.62,0.26,1.293,0.466,2.023,0.617c0.729,0.151,1.449,0.228,2.164,0.228
			c1.168,0,2.048-0.221,2.642-0.665c0.589-0.444,0.886-1.062,0.886-1.851c0-0.524-0.105-0.951-0.313-1.284
			c-0.211-0.334-0.562-0.642-1.054-0.923c-0.489-0.282-1.239-0.603-2.242-0.96c-1.401-0.501-2.404-1.097-3.005-1.783
			c-0.603-0.689-0.903-1.586-0.903-2.693c0-1.161,0.436-2.086,1.311-2.772c0.871-0.688,2.028-1.031,3.465-1.031
			c1.497,0,2.877,0.274,4.136,0.825l-0.546,1.525c-1.246-0.522-2.457-0.784-3.632-0.784c-0.927,0-1.655,0.201-2.175,0.6
			c-0.524,0.398-0.784,0.951-0.784,1.659c0,0.522,0.095,0.951,0.288,1.283c0.192,0.333,0.518,0.642,0.975,0.919
			c0.457,0.279,1.155,0.587,2.1,0.923c1.582,0.562,2.669,1.17,3.263,1.815S290.074,155.92,290.074,156.952z"/>
	</g>
</g>
<g>
	<g>
		<path fill="#FFFFFF" d="M90.505,70.343c-3.856-3.542-5.783-7.981-5.783-13.296c0-6.573,2.186-11.498,6.567-14.785
			c4.381-3.284,9.591-5.418,15.647-6.413c6.044-0.99,13.868-1.747,23.461-2.269V21.224c0-5.107-1.281-8.996-3.829-11.656
			c-2.561-2.658-6.655-3.988-12.284-3.988c-3.228,0-6.053,0.994-8.447,2.972c-2.398,1.982-3.597,4.643-3.597,7.978
			c0,1.672,0.39,3.05,1.172,4.149c0.782,1.092,1.616,2.006,2.504,2.738c0.882,0.728,1.326,1.148,1.326,1.248
			c0,0.626-0.654,1.434-1.954,2.426c-1.305,0.993-2.895,1.484-4.771,1.484c-3.128,0-5.607-1.146-7.431-3.44
			s-2.736-5.007-2.736-8.133c0-5.425,2.424-9.442,7.273-12.048s10.716-3.908,17.601-3.908c8.549,0,15.508,1.616,20.883,4.849
			c5.371,3.234,8.057,9.229,8.057,17.991v36.443c0.104,2.194,0.785,4.281,2.032,6.259c1.252,1.98,3.285,2.977,6.101,2.977
			c0.836,0,1.439,0.154,1.798,0.468c0.368,0.312,0.551,0.993,0.551,2.032c0,1.25-0.967,2.16-2.895,2.734
			c-1.93,0.576-3.834,0.862-5.708,0.862c-3.967,0-7.459-1.144-10.484-3.443c-3.026-2.288-4.745-5.364-5.163-9.227
			c-2.186,4.064-5.553,7.195-10.09,9.388c-4.537,2.19-9.411,3.282-14.624,3.282C99.427,75.66,94.366,73.888,90.505,70.343z
			 M120.544,64.554c3.022-1.768,5.423-4.199,7.195-7.275c1.772-3.077,2.659-6.487,2.659-10.244v-8.919
			c-10.948,0.84-18.669,2.606-23.154,5.323c-4.483,2.712-6.725,7.086-6.725,13.138c0,7.093,3.389,10.638,10.167,10.638
			C114.231,67.215,117.518,66.333,120.544,64.554z"/>
	</g>
	<g>
		<path fill="#FFFFFF" d="M262.458,70.658c-5.479-3.336-9.622-7.871-12.438-13.61c-2.816-5.735-4.221-12.1-4.221-19.089
			c0-6.149,1.433-12.065,4.299-17.749c2.872-5.683,6.963-10.302,12.277-13.846c5.323-3.547,11.429-5.319,18.31-5.319
			c9.277,0,16.423,2.372,21.43,7.115c5.002,4.749,7.873,11.134,8.605,19.163c0,3.443-0.942,5.792-2.814,7.042
			c-1.881,1.25-4.594,1.878-8.138,1.878h-38.015c0,9.697,2.007,17.386,6.023,23.069c4.015,5.689,10.246,8.53,18.693,8.53
			c4.486,0,8.291-0.962,11.417-2.897c3.133-1.926,6.105-5.185,8.922-9.775c0.516-0.524,1.04-0.78,1.564-0.78
			c0.728,0,1.354,0.214,1.874,0.622c1.042,0.626,1.562,1.566,1.562,2.816c0,0.628-0.1,1.099-0.312,1.408
			c-3.232,5.219-7.322,9.256-12.277,12.126c-4.955,2.862-10.56,4.298-16.819,4.298C274.579,75.66,267.933,73.994,262.458,70.658z
			 M287.249,30.299c5.326,0,8.138-2.193,8.452-6.573c0-4.797-1.307-8.863-3.911-12.2c-2.608-3.341-6.312-5.007-11.105-5.007
			c-5.321,0-9.704,2.108-13.14,6.335c-3.445,4.221-5.376,10.038-5.792,17.445H287.249z"/>
	</g>
	<g>
		<g>
			<path fill="#FFFFFF" d="M75.939,0H35.703l0.074,0.031c-0.135-0.002-0.254-0.018-0.388-0.018c-0.032,0-0.065-0.003-0.102-0.003
				l0.002,0.002c-0.052,0-0.102-0.002-0.156-0.002c-5.906,0-11.177,1.052-15.816,3.161c-4.641,2.11-8.25,5.008-10.831,8.697
				C5.902,15.56,4.61,19.67,4.61,24.202c0,1.693,0.178,3.321,0.531,4.89c0.596,2.587,1.673,5.007,3.237,7.253
				c2.531,3.638,6.903,6.67,13.127,9.093c-0.078,0-0.147,0.007-0.223,0.007c-5.27,0.039-9.336,1.431-12.193,4.184
				C6.188,52.423,4.74,55.875,4.74,59.987c0,4.007,1.133,6.957,3.401,8.854c2.267,1.898,5.456,3.216,9.568,3.953
				c3.163,0.53,8.484,0.895,15.969,1.107c6.114,0.103,11.071,0.396,14.867,0.869c3.796,0.474,6.957,1.554,9.487,3.241
				c2.53,1.686,3.796,4.216,3.796,7.591c0,5.481-2.163,9.62-6.487,12.415c-4.322,2.79-10.491,4.189-18.502,4.189
				c-1.941,0-3.75-0.077-5.42-0.235c-10.302-0.978-15.448-4.957-15.452-11.94c0-1.794,0.345-3.35,1.029-4.664
				c0.685-1.319,1.476-2.429,2.373-3.321c0.895-0.897,1.345-1.4,1.345-1.504c0-0.42-0.399-1.027-1.187-1.815
				c-0.791-0.793-1.818-1.479-3.083-2.059c-1.266-0.581-2.637-0.87-4.112-0.87c-3.586,0-6.513,1.319-8.774,3.955
				c-2.271,2.633-3.401,5.744-3.401,9.329c0,12.28,10.479,18.603,31.44,18.958c0.633,0.013,1.274,0.017,1.926,0.017
				c12.858,0,23.137-2.346,30.836-7.036C72.055,96.333,75.9,89.874,75.9,81.652c0-6.327-2.45-11.044-7.353-14.154
				c-4.901-3.108-12.887-4.874-23.956-5.297l-21.666-0.79c-3.375-0.21-5.746-0.792-7.115-1.74c-1.374-0.95-2.054-2.424-2.054-4.428
				c0-2.423,1.237-4.163,3.713-5.218c2.435-1.036,6.337-1.563,11.677-1.58c0.091-0.001,0.174-0.003,0.262-0.003h6.959
				c4.953,0,9.695-1,14.23-3.004c4.53-2.001,8.196-4.876,10.991-8.619c2.79-3.741,4.19-8.037,4.19-12.888
				c0-2.634-0.633-5.428-1.896-8.381c-0.5-1.162-1.053-2.208-1.631-3.19c-0.108-0.165-0.204-0.331-0.316-0.492
				c-0.006-0.005-0.011-0.011-0.015-0.015c-1.306-1.863-2.877-3.52-4.706-4.979h18.723V0z M47.07,38.671
				c-0.059,0.067-0.124,0.125-0.18,0.189c-2.983,3.399-6.9,5.107-11.758,5.107c-4.849,0-8.807-1.79-11.86-5.377
				c-1.915-2.24-3.232-5.021-3.945-8.338c-0.446-2.014-0.671-4.225-0.671-6.636c0-5.798,1.527-10.384,4.589-13.758
				c3.052-3.372,6.957-5.06,11.699-5.06c4.849,0,8.831,1.738,11.939,5.218c1.95,2.183,3.289,4.826,4.017,7.924
				c0.451,1.869,0.678,3.902,0.678,6.103C51.579,30.266,50.073,35.14,47.07,38.671z"/>
		</g>
	</g>
	<g>
		<g>
			<path fill="#FFFFFF" d="M239.558,0H199.32l0.073,0.031c-0.134-0.002-0.253-0.018-0.388-0.018c-0.032,0-0.065-0.003-0.102-0.003
				l0.002,0.002c-0.052,0-0.102-0.002-0.156-0.002c-5.905,0-11.177,1.052-15.815,3.161c-4.641,2.11-8.25,5.008-10.831,8.697
				c-2.584,3.692-3.876,7.802-3.876,12.333c0,1.693,0.178,3.321,0.531,4.89c0.596,2.587,1.673,5.007,3.236,7.253
				c2.531,3.638,6.903,6.67,13.128,9.093c-0.078,0-0.147,0.007-0.224,0.007c-5.269,0.039-9.336,1.431-12.193,4.184
				c-2.9,2.794-4.348,6.247-4.348,10.358c0,4.007,1.133,6.957,3.401,8.854c2.266,1.898,5.455,3.216,9.567,3.953
				c3.163,0.53,8.484,0.895,15.97,1.107c6.113,0.103,11.07,0.396,14.866,0.869c3.796,0.474,6.957,1.554,9.487,3.241
				c2.53,1.686,3.796,4.216,3.796,7.591c0,5.481-2.162,9.62-6.486,12.415c-4.322,2.79-10.49,4.189-18.503,4.189
				c-1.94,0-3.75-0.077-5.42-0.235c-10.302-0.978-15.448-4.957-15.452-11.94c0-1.794,0.345-3.35,1.029-4.664
				c0.685-1.319,1.476-2.429,2.372-3.321c0.895-0.897,1.346-1.4,1.346-1.504c0-0.42-0.398-1.027-1.188-1.815
				c-0.791-0.793-1.817-1.479-3.083-2.059c-1.266-0.581-2.637-0.87-4.112-0.87c-3.585,0-6.513,1.319-8.774,3.955
				c-2.271,2.633-3.401,5.744-3.401,9.329c0,12.28,10.479,18.603,31.441,18.958c0.632,0.013,1.273,0.017,1.926,0.017
				c12.858,0,23.137-2.346,30.836-7.036c7.696-4.688,11.542-11.147,11.542-19.369c0-6.327-2.451-11.044-7.354-14.154
				c-4.9-3.108-12.887-4.874-23.956-5.297l-21.665-0.79c-3.375-0.21-5.746-0.792-7.115-1.74c-1.373-0.95-2.054-2.424-2.054-4.428
				c0-2.423,1.237-4.163,3.714-5.218c2.435-1.036,6.337-1.563,11.678-1.58c0.091-0.001,0.173-0.003,0.262-0.003h6.959
				c4.953,0,9.695-1,14.229-3.004c4.53-2.001,8.196-4.876,10.991-8.619c2.791-3.741,4.19-8.037,4.19-12.888
				c0-2.634-0.633-5.428-1.896-8.381c-0.501-1.162-1.054-2.208-1.632-3.19c-0.108-0.165-0.204-0.331-0.316-0.492
				c-0.007-0.005-0.011-0.011-0.015-0.015c-1.307-1.863-2.878-3.52-4.706-4.979h18.724V0z M210.688,38.671
				c-0.058,0.067-0.123,0.125-0.18,0.189c-2.983,3.399-6.9,5.107-11.758,5.107c-4.849,0-8.807-1.79-11.859-5.377
				c-1.915-2.24-3.232-5.021-3.945-8.338c-0.446-2.014-0.672-4.225-0.672-6.636c0-5.798,1.527-10.384,4.589-13.758
				c3.053-3.372,6.957-5.06,11.699-5.06c4.849,0,8.831,1.738,11.94,5.218c1.949,2.183,3.288,4.826,4.017,7.924
				c0.45,1.869,0.678,3.902,0.678,6.103C215.196,30.266,213.69,35.14,210.688,38.671z"/>
		</g>
	</g>
</g>
</svg>
